<svg width="45" height="45" viewBox="0 0 45 45" fill="none" xmlns="http://www.w3.org/2000/svg">
<path d="M33.75 22.5C33.75 28.7132 28.7132 33.75 22.5 33.75C16.2868 33.75 11.25 28.7132 11.25 22.5C11.25 16.2868 16.2868 11.25 22.5 11.25C28.7132 11.25 33.75 16.2868 33.75 22.5Z" fill="#FFC700"/>
<path d="M23.9062 7.03125C23.9062 7.8079 23.2767 8.4375 22.5 8.4375C21.7233 8.4375 21.0938 7.8079 21.0938 7.03125C21.0938 6.2546 21.7233 5.625 22.5 5.625C23.2767 5.625 23.9062 6.2546 23.9062 7.03125Z" fill="#FFC700"/>
<path d="M23.9062 37.9688C23.9062 38.7454 23.2767 39.375 22.5 39.375C21.7233 39.375 21.0938 38.7454 21.0938 37.9688C21.0938 37.1921 21.7233 36.5625 22.5 36.5625C23.2767 36.5625 23.9062 37.1921 23.9062 37.9688Z" fill="#FFC700"/>
<path d="M37.9688 23.9062C37.1921 23.9062 36.5625 23.2767 36.5625 22.5C36.5625 21.7233 37.1921 21.0938 37.9688 21.0938C38.7454 21.0938 39.375 21.7233 39.375 22.5C39.375 23.2767 38.7454 23.9062 37.9688 23.9062Z" fill="#FFC700"/>
<path d="M7.03125 23.9062C6.2546 23.9062 5.625 23.2767 5.625 22.5C5.625 21.7233 6.2546 21.0938 7.03125 21.0938C7.8079 21.0938 8.4375 21.7233 8.4375 22.5C8.4375 23.2767 7.8079 23.9062 7.03125 23.9062Z" fill="#FFC700"/>
<path d="M34.4324 12.5563C33.8832 13.1055 32.9929 13.1055 32.4437 12.5563C31.8945 12.0071 31.8945 11.1168 32.4437 10.5676C32.9929 10.0184 33.8832 10.0184 34.4324 10.5676C34.9816 11.1168 34.9816 12.0071 34.4324 12.5563Z" fill="#FFC700"/>
<path d="M12.5563 34.4324C12.0071 34.9816 11.1167 34.9816 10.5676 34.4324C10.0184 33.8833 10.0184 32.9929 10.5676 32.4437C11.1167 31.8945 12.0071 31.8945 12.5563 32.4437C13.1055 32.9929 13.1055 33.8833 12.5563 34.4324Z" fill="#FFC700"/>
<path d="M32.4437 34.4323C31.8945 33.8831 31.8945 32.9927 32.4437 32.4436C32.9929 31.8944 33.8832 31.8944 34.4324 32.4436C34.9816 32.9927 34.9816 33.8831 34.4324 34.4323C33.8832 34.9815 32.9929 34.9815 32.4437 34.4323Z" fill="#FFC700"/>
<path d="M10.5676 12.5562C10.0184 12.007 10.0184 11.1166 10.5676 10.5674C11.1167 10.0183 12.0071 10.0183 12.5563 10.5674C13.1055 11.1166 13.1055 12.007 12.5563 12.5562C12.0071 13.1053 11.1167 13.1053 10.5676 12.5562Z" fill="#FFC700"/>
</svg>
